HIERARCHY
ROOT root
{
	OFFSET 0.000000 0.000000 0.000000
	CHANNELS 6 Xposition Yposition Zposition Zrotation Yrotation Xrotation
	JOINT lhip
	{
		OFFSET 0.058581 -0.082280 -0.017664
		CHANNELS 3 Zrotation Yrotation Xrotation
		JOINT lknee
		{
			OFFSET 0.043451 -0.386469 0.008037
			CHANNELS 3 Zrotation Yrotation Xrotation
			JOINT lankle
			{
				OFFSET -0.014790 -0.426874 -0.037428
				CHANNELS 3 Zrotation Yrotation Xrotation
				JOINT ltoe
				{
					OFFSET 0.041054 -0.060286 0.122042
					CHANNELS 3 Zrotation Yrotation Xrotation
					End Site
					{
						OFFSET 0.000000 0.000000 0.000000
					}
				}
			}
		}
	}
	JOINT rhip
	{
		OFFSET -0.060310 -0.090513 -0.013543
		CHANNELS 3 Zrotation Yrotation Xrotation
		JOINT rknee
		{
			OFFSET -0.043257 -0.383688 -0.004843
			CHANNELS 3 Zrotation Yrotation Xrotation
			JOINT rankle
			{
				OFFSET 0.019056 -0.420046 -0.034562
				CHANNELS 3 Zrotation Yrotation Xrotation
				JOINT rtoe
				{
					OFFSET -0.034840 -0.062106 0.130323
					CHANNELS 3 Zrotation Yrotation Xrotation
					End Site
					{
						OFFSET 0.000000 0.000000 0.000000
					}
				}
			}
		}
	}
	JOINT lowerback
	{
		OFFSET 0.004439 0.124404 -0.038385
		CHANNELS 3 Zrotation Yrotation Xrotation
		JOINT upperback
		{
			OFFSET 0.004488 0.137956 0.026820
			CHANNELS 3 Zrotation Yrotation Xrotation
			JOINT chest
			{
				OFFSET -0.002265 0.056032 0.002855
				CHANNELS 3 Zrotation Yrotation Xrotation
				JOINT lowerneck
				{
					OFFSET -0.013390 0.211636 -0.033468
					CHANNELS 3 Zrotation Yrotation Xrotation
					JOINT upperneck
					{
						OFFSET 0.010113 0.088937 0.050410
						CHANNELS 3 Zrotation Yrotation Xrotation
						End Site
						{
							OFFSET 0.000000 0.000000 0.000000
						}
					}
				}
				JOINT lclavicle
				{
					OFFSET 0.071702 0.114000 -0.018898
					CHANNELS 3 Zrotation Yrotation Xrotation
					JOINT lshoulder
					{
						OFFSET 0.122921 0.045205 -0.019046
						CHANNELS 3 Zrotation Yrotation Xrotation
						JOINT lelbow
						{
							OFFSET 0.255332 -0.015649 -0.022946
							CHANNELS 3 Zrotation Yrotation Xrotation
							JOINT lwrist
							{
								OFFSET 0.265709 0.012698 -0.007375
								CHANNELS 3 Zrotation Yrotation Xrotation
								End Site
								{
									OFFSET 0.000000 0.000000 0.000000
								}
							}
						}
					}
				}
				JOINT rclavicle
				{
					OFFSET -0.082954 0.112472 -0.023707
					CHANNELS 3 Zrotation Yrotation Xrotation
					JOINT rshoulder
					{
						OFFSET -0.113228 0.046853 -0.008472
						CHANNELS 3 Zrotation Yrotation Xrotation
						JOINT relbow
						{
							OFFSET -0.260127 -0.014369 -0.031269
							CHANNELS 3 Zrotation Yrotation Xrotation
							JOINT rwrist
							{
								OFFSET -0.269108 0.006794 -0.006027
								CHANNELS 3 Zrotation Yrotation Xrotation
								End Site
								{
									OFFSET 0.000000 0.000000 0.000000
								}
							}
						}
					}
				}
			}
		}
	}
}
MOTION
Frames: 11
Frame Time: 0.033333
-0.805786 1.455893 1.002080 124.980356 -7.409919 77.704422 -0.372794 -0.158242 -1.501693 -7.266705 -21.205468 7.052425 -1.936429 11.951892 -5.086018 0.000000 -0.000000 0.000000 -12.826699 -9.253557 11.423967 7.293182 8.490312 9.213738 0.849515 -14.055399 -17.863996 0.000000 -0.000000 0.000000 3.091229 8.658297 8.885783 0.787374 -0.787724 3.609043 0.366162 6.867725 -7.148565 3.884305 5.258137 -3.403505 7.873121 5.865155 8.117082 -10.376768 3.983229 -6.437218 12.675394 -2.839917 -18.151579 -2.813109 -15.902643 -53.783767 13.034161 -21.743186 -36.441035 7.758508 6.390575 -5.177805 -2.767000 4.483907 -16.644163 -5.854949 11.383503 -41.524109 -2.514603 17.818865 -14.684929 
-0.808729 1.459806 1.001941 123.518895 -7.629235 77.875905 -0.483347 -1.051155 -1.282630 -6.901198 -24.125824 5.206439 -2.478601 10.413222 -5.078642 0.000000 -0.000000 0.000000 -13.441807 -8.895593 11.004819 7.514532 8.513749 9.398423 1.222731 -12.982115 -17.692173 0.000000 -0.000000 0.000000 2.852520 8.090822 8.961018 1.252520 -1.630234 4.430807 0.979773 6.232622 -7.118370 2.977426 4.775451 -3.080274 8.300102 6.516900 9.042657 -10.958012 1.658403 -5.023084 10.222587 -4.221620 -17.320575 -4.267622 -16.179122 -52.232586 13.515225 -22.690185 -36.312293 8.314861 8.854868 -3.434697 -1.785378 5.967778 -16.925023 -4.587769 11.428297 -40.703378 -1.780811 18.410029 -13.340999 
-0.811898 1.464324 1.001854 122.199079 -7.601403 78.178265 -0.414289 -1.880851 -1.084276 -5.966598 -26.337953 3.031089 -3.135829 8.621656 -4.793262 0.000000 -0.000000 0.000000 -13.758232 -8.593744 10.572930 7.712070 8.747660 9.346544 1.295143 -12.449186 -17.312913 0.000000 -0.000000 0.000000 3.182385 7.464384 10.371701 1.429700 -2.247306 3.977595 0.987726 5.819633 -7.718229 2.356616 4.076197 -3.087438 8.559122 6.143343 10.640509 -11.036653 -0.920131 -3.919390 8.420594 -6.182064 -16.784272 -6.157105 -15.114756 -49.789044 12.677905 -23.893216 -36.246829 8.524123 10.036242 -3.408247 0.585892 6.456686 -15.708254 -4.314867 12.558904 -38.525190 0.024745 19.092167 -12.925723 
-0.814923 1.469126 1.001331 120.352317 -7.348620 78.708114 0.145739 -2.248767 -0.969146 -5.156286 -28.165786 1.100523 -4.220495 7.021015 -3.475971 0.000000 -0.000000 0.000000 -13.822166 -8.235821 9.834046 7.845621 8.898773 9.444263 1.371669 -11.355226 -16.946662 0.000000 -0.000000 0.000000 3.145128 6.723201 10.905803 1.870524 -2.950259 4.732331 1.196991 5.162446 -8.055681 2.028824 4.260716 -2.585762 8.335439 6.188639 10.507878 -10.841584 -2.134003 -2.894612 6.165037 -7.265665 -16.376967 -6.214616 -15.142668 -48.404236 11.407151 -24.668638 -35.334716 9.114040 11.091840 -2.158671 1.465047 7.707097 -15.383400 -4.142791 12.069711 -37.782919 1.683173 19.491904 -11.428654 
-0.819252 1.475711 1.001366 118.264198 -7.064706 79.758508 0.655931 -2.671347 -1.378154 -4.482038 -29.665600 -0.104846 -4.520852 5.607823 -1.270528 0.000000 -0.000000 0.000000 -13.967628 -7.776564 8.335797 8.220035 9.036766 9.759395 1.773185 -10.271904 -16.513677 0.000000 -0.000000 0.000000 3.066448 5.866369 11.791249 2.175875 -3.414391 5.189422 1.507454 4.734265 -8.676231 1.055595 3.789703 -2.459792 8.570457 5.758366 10.546359 -10.989694 -2.626022 -2.992962 4.887030 -7.991663 -15.869537 -6.539862 -14.814908 -47.467568 10.177374 -25.826604 -34.715390 9.561177 11.343190 -1.954835 1.890558 7.619353 -14.827269 -4.177712 11.547965 -37.075898 3.671019 20.059455 -10.181391 
-0.823204 1.483277 1.001044 115.674345 -6.587779 80.940524 1.406740 -2.781693 -1.788808 -4.216130 -30.544143 -0.094371 -3.526904 5.077277 -1.051459 0.000000 -0.000000 0.000000 -13.904638 -7.289762 6.575640 8.652582 9.665113 10.108704 1.895239 -9.317317 -16.180519 0.000000 -0.000000 0.000000 3.147789 5.057274 12.926263 2.424019 -3.750870 5.264922 1.592823 4.265936 -8.885012 0.539280 3.851777 -2.117563 8.485590 5.828935 10.944265 -10.987532 -2.498566 -2.706870 4.760118 -7.575037 -15.952867 -7.088139 -14.231214 -47.351096 9.501654 -26.339949 -34.429980 9.709509 10.662015 -1.935820 2.024167 7.161384 -14.998365 -3.541873 10.698137 -36.878558 5.017389 20.177422 -9.647419 
-0.826836 1.492149 1.000866 112.569585 -6.174014 82.299610 2.194023 -2.738009 -2.139239 -4.251772 -30.916759 0.010515 -3.032227 5.384101 -2.383033 0.000000 -0.000000 0.000000 -13.992095 -6.872654 4.665413 9.048977 10.674129 10.175483 2.078543 -8.386014 -15.513555 0.000000 -0.000000 0.000000 3.045194 4.637534 14.107084 2.587706 -3.772239 5.152400 1.547641 3.853742 -8.714900 0.528500 3.636937 -1.022091 8.525553 5.571276 10.753213 -10.821775 -1.477675 -2.573236 4.770281 -7.358966 -15.910108 -6.787276 -13.796595 -47.340540 10.647544 -25.616672 -34.454091 9.587393 9.061063 -2.109823 2.350170 6.011658 -14.476677 -3.076753 9.801067 -36.471304 3.614139 19.716998 -10.520389 
-0.829874 1.501346 1.000937 108.891883 -5.360623 83.514334 3.288500 -2.618210 -1.919358 -3.669301 -30.440291 -1.038930 -3.260427 5.978575 -3.340228 0.000000 -0.000000 0.000000 -13.401758 -6.027448 2.836083 9.025443 11.780284 10.074017 2.499174 -7.153665 -14.866265 0.000000 -0.000000 0.000000 2.996312 4.205421 15.570396 2.734499 -3.568718 5.413846 1.536278 3.675355 -8.422704 0.821026 4.344582 0.170505 8.934916 4.825368 9.630320 -10.505631 0.518612 -2.930050 5.202421 -7.392876 -16.136166 -6.727910 -13.067177 -48.322654 10.613592 -25.606443 -33.524766 9.610078 7.435357 -2.408231 2.366174 4.766606 -14.013692 -3.604845 7.820486 -37.116353 4.941196 19.588948 -10.581157 
-0.833490 1.511605 1.000347 104.712473 -4.751629 85.147880 3.899410 -1.969735 -2.128491 -3.285958 -28.888479 -2.047369 -2.416960 7.184029 -4.211440 0.000000 -0.000000 0.000000 -13.146526 -5.327766 0.196196 9.123759 13.211307 10.189263 3.074273 -5.982270 -14.046104 0.000000 -0.000000 0.000000 2.541260 3.997964 16.501516 2.822222 -3.381202 5.747622 1.348746 3.672022 -8.309033 1.129891 4.118575 1.348508 9.056405 4.185540 10.033316 -10.217400 2.441369 -2.712596 5.836314 -6.586654 -16.708134 -6.351562 -12.713314 -48.896407 10.717288 -25.343780 -33.477574 10.004950 5.199310 -1.826200 1.954029 3.666896 -14.875937 -4.205028 6.557371 -37.020193 5.222403 19.452909 -9.828308 
-0.837757 1.522353 1.000076 100.713150 -3.943022 86.946701 4.309030 -1.107390 -3.091899 -3.204721 -26.380054 -2.423417 -1.215992 8.602855 -4.248767 0.000000 -0.000000 0.000000 -12.427242 -4.580292 -2.545083 8.721311 15.024583 9.875133 3.847840 -5.294558 -12.868646 0.000000 -0.000000 0.000000 2.094634 3.806526 17.537289 2.907633 -3.217814 5.443802 1.290032 3.478201 -7.630119 1.364506 4.063273 1.634415 9.442887 4.129894 10.820688 -9.647434 4.346796 -2.718140 5.675303 -5.883645 -16.662436 -5.361357 -12.816183 -49.404338 12.218667 -23.910086 -35.645161 9.854626 2.650427 -2.468710 2.201692 2.777734 -14.373564 -4.559329 6.512463 -37.113305 3.402888 18.654656 -11.362287 
-0.842430 1.534425 1.000022 97.278351 -3.233108 88.635334 4.143377 0.265513 -4.727420 -3.201526 -23.818006 -1.982156 -0.271535 9.008593 -3.698450 0.000000 -0.000000 0.000000 -11.872841 -4.034907 -5.264225 8.107294 16.254613 9.540879 4.620380 -4.420272 -11.654309 0.000000 -0.000000 0.000000 1.644407 3.319372 18.588588 2.786890 -3.367942 4.572220 1.219853 3.072268 -7.200747 1.886969 4.192880 2.788969 9.429171 3.558184 12.165175 -9.186315 5.770536 -3.377928 6.053612 -5.747747 -16.855765 -5.110118 -11.673037 -49.827808 12.880908 -23.373722 -36.018445 9.789392 0.901884 -2.695131 2.522572 2.206578 -14.207929 -5.193576 5.714893 -37.963942 2.417268 18.203333 -12.137481 
